<svg xmlns="http://www.w3.org/2000/svg" width="96" height="96" fill="none" viewBox="0 0 96 96"><path stroke="#333" stroke-width="1.5" d="m56.734 60.303 15.214 15.378s2.54 2.32 4.88 0-.239-5.103-.239-5.103L61.37 55.18"/><ellipse cx="42.747" cy="40.739" stroke="#333" stroke-width="1.5" rx="18.292" ry="18.565"/><path stroke="#333" stroke-width="1.5" d="M57 20.75A24.4 24.4 0 0 0 42.5 16C28.969 16 18 26.969 18 40.5S28.969 65 42.5 65 67 54.031 67 40.5c0-4.776-1.366-9.232-3.73-13"/><ellipse cx="42.8" cy="40.802" fill="#ffea78" rx="16.5" ry="16.502"/><path stroke="#333" stroke-width="1.5" d="M42.966 44.213c2.591 0 4.692-2.219 4.692-4.956s-2.1-4.956-4.692-4.956-4.692 2.219-4.692 4.956 2.1 4.956 4.692 4.956Z" clip-rule="evenodd"/><path stroke="#333" stroke-width="1.5" d="M33.125 40.441c2.285-3.742 5.803-6.14 9.75-6.14s7.464 2.398 9.748 6.14c-2.284 3.743-5.802 6.141-9.749 6.141-3.946 0-7.464-2.398-9.749-6.14Z" clip-rule="evenodd"/><path stroke="#333" stroke-width="1.5" d="M42.841 41.582c1.239 0 2.243-1.06 2.243-2.369 0-1.308-1.004-2.369-2.243-2.369s-2.242 1.06-2.242 2.369c0 1.308 1.004 2.369 2.242 2.369Z" clip-rule="evenodd"/></svg>