<?xml version="1.0" standalone="no"?>
<!DOCTYPE svg PUBLIC "-//W3C//DTD SVG 20010904//EN"
 "http://www.w3.org/TR/2001/REC-SVG-20010904/DTD/svg10.dtd">
<svg version="1.0" xmlns="http://www.w3.org/2000/svg"
 width="378.000000pt" height="366.000000pt" viewBox="0 0 378.000000 366.000000"
 preserveAspectRatio="xMidYMid meet">

<g transform="translate(0.000000,366.000000) scale(0.100000,-0.100000)"
fill="#000000" stroke="none">
<path d="M1455 3231 c-303 -6 -311 -7 -360 -31 -35 -17 -114 -86 -260 -230
-190 -185 -210 -208 -213 -242 -2 -20 -10 -42 -18 -48 -12 -11 -14 -147 -14
-971 0 -652 3 -974 11 -1009 15 -69 64 -140 114 -164 39 -18 79 -19 1226 -18
1028 2 1191 4 1220 17 46 20 59 32 99 89 l35 48 3 997 2 997 -25 24 c-15 14
-25 35 -25 50 0 22 -39 64 -206 226 -114 109 -218 207 -233 217 -61 41 -107
45 -586 49 -253 2 -599 2 -770 -1z m195 -126 c11 -13 10 -25 -8 -68 -12 -29
-22 -56 -22 -59 0 -19 -85 -205 -98 -215 -12 -10 -99 -13 -358 -13 -188 0
-349 3 -358 6 -9 3 -16 12 -16 20 0 20 284 295 332 322 39 21 51 22 278 22
202 0 239 -2 250 -15z m453 1 c26 -27 119 -287 115 -322 l-3 -27 -270 2 c-148
1 -274 6 -279 12 -11 10 22 121 66 218 15 35 28 69 28 75 0 6 7 22 16 34 14
21 22 22 164 22 115 0 152 -3 163 -14z m652 -5 c17 -11 99 -87 184 -169 110
-107 152 -155 148 -166 -6 -14 -45 -16 -359 -16 -194 0 -358 4 -365 8 -13 8
-73 147 -114 264 -36 101 -44 98 240 98 216 0 238 -2 266 -19z m-1243 -463 c4
-7 8 -128 8 -268 0 -144 5 -271 10 -292 16 -55 69 -120 120 -145 42 -22 55
-23 280 -23 131 0 251 5 272 10 49 14 94 52 120 104 20 38 23 65 33 328 5 157
14 290 18 295 10 10 794 11 810 1 9 -5 12 -257 12 -986 0 -1098 5 -1023 -72
-1039 -21 -4 -563 -8 -1205 -8 l-1168 0 -27 28 -28 27 -3 969 c-1 598 1 978 7
994 l10 25 397 -4 c305 -3 400 -7 406 -16z m729 -8 c18 -10 19 -24 19 -271 0
-286 -3 -305 -60 -334 -46 -24 -436 -31 -503 -9 -77 25 -80 38 -76 347 3 215
7 259 19 267 21 13 576 13 601 0z"/>
</g>
</svg>
