<svg xmlns="http://www.w3.org/2000/svg" width="96" height="96" fill="none" viewBox="0 0 96 96"><g clip-path="url(#a)"><circle cx="48" cy="48" r="48"/><path stroke="#333" stroke-width="1.5" d="M24.572 70.211c0-.69.56-1.25 1.25-1.25h8.868c.69 0 1.25.56 1.25 1.25v1.444c0 .69-.56 1.25-1.25 1.25h-8.868c-.69 0-1.25-.56-1.25-1.25zm32.665 0c0-.69.56-1.25 1.25-1.25h8.868c.69 0 1.25.56 1.25 1.25v1.444c0 .69-.56 1.25-1.25 1.25h-8.868c-.69 0-1.25-.56-1.25-1.25zm-37.375-5.444a2 2 0 0 1 2-2h49.452a2 2 0 0 1 2 2v1.939a2 2 0 0 1-2 2H21.862a2 2 0 0 1-2-2z"/><path stroke="#333" stroke-width="1.5" d="M24.811 25.172a2 2 0 0 1 2-2H66.66a2 2 0 0 1 2 2v35.746a2 2 0 0 1-2 2H26.811a2 2 0 0 1-2-2z"/><path stroke="#333" stroke-linecap="round" stroke-width="1.5" d="M25.306 43.217h20.787m10.889 8.909h-6.93M27.286 35.257h.99m20.812 0H31.22m18.585 27.015.248-38.605"/><circle cx="70.163" cy="50.041" r="14.021" fill="#ffea78" stroke="#000" stroke-dasharray="82.11 43.21" stroke-linecap="round" stroke-opacity=".8" stroke-width="1.08" transform="rotate(60 70.163 50.041)"/><path stroke="#000" stroke-dasharray="82.11 43.21" stroke-linecap="round" stroke-opacity=".8" stroke-width="1.08" d="M58.02 43.031c-3.871 6.706-1.573 15.281 5.133 19.153s15.28 1.574 19.152-5.132"/><path stroke="#000" stroke-dasharray="82.11 43.21" stroke-linecap="round" stroke-opacity=".8" stroke-width="1.08" d="M84.184 50.041c0-7.743-6.278-14.02-14.021-14.02s-14.02 6.277-14.02 14.02"/><path fill="#000" fill-opacity=".9" fill-rule="evenodd" d="M73.673 52.599a5.364 5.364 0 1 1 .759-.759l3.577 3.578-.758.759zm-7.686-4.154a4.291 4.291 0 1 0 8.583 0 4.291 4.291 0 0 0-8.583 0" clip-rule="evenodd"/></g><defs><clipPath id="a"><path fill="#fff" d="M0 0h96v96H0z"/></clipPath></defs></svg>