<svg xmlns="http://www.w3.org/2000/svg" width="96" height="96" viewBox="0 0 96 96"><g fill="none" fill-rule="evenodd"><g fill-rule="nonzero"><path fill="#ffea78" stroke="#333" stroke-width="1.5" d="M23.747 26.386h48.514a1 1 0 0 1 1 1v2.96a1 1 0 0 1-1 1H23.747a1 1 0 0 1-1-1v-2.96a1 1 0 0 1 1-1z"/><path stroke="#333" stroke-width="1.5" d="M25.337 31.356a.25.25 0 0 0-.25.25v37.565c0 .138.112.25.25.25h45.672a.25.25 0 0 0 .25-.25V31.606a.25.25 0 0 0-.25-.25z"/><path fill="#f5f5f5" d="M23.258 46.776h3.795v12.559h-3.795zm0-2.285h3.795v-2.168h-3.795z"/><path stroke="#333" stroke-linecap="round" stroke-linejoin="round" d="M28.711 35.329h33.073"/><path fill="#ffdb15" stroke="#333" d="M43.86 26.109v18.463l4.29-1.825 4.291 1.825V26.109z"/></g><path fill="#ffea78" stroke="#000" stroke-dasharray="76,40" stroke-linecap="round" stroke-opacity=".8" d="M63.81 76.166c6.443 3.142 14.212.467 17.354-5.975s.467-14.212-5.975-17.354-14.211-.467-17.353 5.975c-3.142 6.443-.467 14.212 5.975 17.354z"/><g stroke="#333" stroke-linecap="round" stroke-width="1.5"><path d="M63.5 64.474h11.416m1.084 0-4.542-3.53M76 64.474l-4.542 3.53"/></g></g></svg>