<svg xmlns="http://www.w3.org/2000/svg" width="96" height="96" fill="none" viewBox="0 0 96 96"><path fill="#ffea78" d="M33.706 38.464h30.928v1.45H33.706zm0 21.747h30.928v1.45H33.706z"/><path fill="#ffdb15" fill-rule="evenodd" d="M30.565 23.725v47.842h2.9V23.725zm33.827-.483v47.842h3.867V23.242z" clip-rule="evenodd"/><path stroke="#333" stroke-linejoin="round" stroke-width="1.5" d="M64.393 38.706v2.416H33.948v-2.416zm0 21.746v2.416H33.948v-2.416z" clip-rule="evenodd"/><path stroke="#333" stroke-dasharray="197 100" stroke-linecap="round" stroke-linejoin="round" stroke-width="1.5" d="M33.706 70.36V23.482a.485.485 0 0 0-.487-.483h-2.892a.485.485 0 0 0-.487.483V70.36c0 .267.218.483.487.483h2.892a.485.485 0 0 0 .487-.483" clip-rule="evenodd"/><path stroke="#333" stroke-dasharray="203 100" stroke-linecap="round" stroke-linejoin="round" stroke-width="1.5" d="M64.635 70.36V23.482c0-.267.217-.483.486-.483h2.892c.27 0 .487.216.487.483V70.36a.485.485 0 0 1-.487.483h-2.892a.485.485 0 0 1-.487-.483z" clip-rule="evenodd"/><path fill="#fff" stroke="#000" stroke-opacity=".8" d="M18 26.722h11.19v10.632H18z"/><path fill="#333" d="M27.182 35.42h-3.721v-3.044h-3.044v-.677h3.72v3.045h3.045z"/><path fill="#333" d="M27.182 33.816h-.676v-1.44h-.929v1.44h-.676v-2.117h2.281z"/><path fill="#333" fill-rule="evenodd" d="M20.417 30.936h2.28v-2.281h-2.28zm1.604-.677h-.928v-.928h.928zm2.879.677h2.282v-2.281h-2.281zm1.606-.677h-.929v-.928h.929zm-6.089 5.161h2.28v-2.28h-2.28zm1.604-.676h-.928v-.928h.928z" clip-rule="evenodd"/><path fill="#333" d="M23.461 28.655h.677v2.281h-.677z"/><circle cx="69.5" cy="64.502" r="12.978" fill="#ffea78" stroke="#000" stroke-dasharray="76 40" stroke-linecap="round" stroke-opacity=".8" transform="rotate(26 69.5 64.502)"/><path fill="#000" fill-opacity=".9" fill-rule="evenodd" d="M69.312 72.75c-5.013-1.671-7.53-5.868-7.53-12.443v-.594h.593c2.226 0 4.471-.93 6.746-2.816l.379-.314.379.314c2.275 1.886 4.52 2.816 6.746 2.816h.594v.594c0 6.575-2.517 10.772-7.531 12.443l-.188.063zm6.713-11.869c-2.193-.143-4.37-1.07-6.525-2.763-2.155 1.694-4.332 2.62-6.525 2.763.08 3.323.856 5.905 2.333 7.774a2.17 2.17 0 0 1 1.817-.978h4.75c.76 0 1.428.388 1.817.978 1.477-1.869 2.253-4.451 2.333-7.774m-3.196 8.71a.99.99 0 0 0-.954-.727h-4.75a.99.99 0 0 0-.954.728q1.37 1.278 3.329 1.967 1.959-.689 3.33-1.967" clip-rule="evenodd"/><path fill="#000" fill-opacity=".9" fill-rule="evenodd" d="M69.5 65.5a1.98 1.98 0 1 0 0-3.959 1.98 1.98 0 0 0 0 3.959m0 1.187a3.167 3.167 0 1 0 0-6.333 3.167 3.167 0 0 0 0 6.333" clip-rule="evenodd"/></svg>