<svg xmlns="http://www.w3.org/2000/svg" width="116" height="116" fill="none" viewBox="0 0 116 116"><circle cx="58" cy="58" r="58" fill="#f5f5f5"/><path stroke="#333" stroke-width="1.5" d="M13 84h90"/><path fill="#fff" d="M44.624 45.595c2.19-2.578 3.894-5.646 3.285-6.75-.608-1.105-1.703-1.228-4.26-.86 0-1.841.147-3.24-2.677-2.946-3.529.368-5.841.776-4.502 3.967q.045.217.107.478c.017 1.838-5.106 1.658-.47 6.11z"/><path stroke="#333" stroke-linecap="round" stroke-width="1.5" d="M43.65 37.985c2.556-.368 3.65-.245 4.26.86.608 1.104-1.096 4.172-3.286 6.75h-8.517c-5.003-4.806 1.358-4.215.363-6.589m7.18-1.021c0-1.841.146-3.24-2.678-2.946-3.529.368-5.841.776-4.502 3.967m7.18-1.021c-.08.928-.387 2.956-.97 3.643m-6.21-2.622c.285 1.365 1.122 4.291 2.193 5.077"/><path fill="#fff" d="M23.207 60.528c-1.86 6.43.28 15.257 2.6 18.614C28.982 83.732 34.972 84 40.5 84s11.342-.268 14.515-4.858c2.32-3.357 4.663-12.628 2.824-18.614s-7.76-15.631-17.33-15.631c-9.571 0-15.442 9.201-17.302 15.631"/><path stroke="#333" stroke-width="1.5" d="M23.207 60.528c-1.86 6.43.28 15.257 2.6 18.614C28.982 83.732 34.972 84 40.5 84s11.342-.268 14.515-4.858c2.32-3.357 4.663-12.628 2.824-18.614s-7.76-15.631-17.33-15.631c-9.571 0-15.442 9.201-17.302 15.631Z"/><path stroke="#333" stroke-linecap="round" stroke-width="1.5" d="M46.171 83.725c1.255-.993 2.824-2.709 3.452-6.23m-14.301 6.23c-1.349-.994-3.27-2.706-3.945-6.23m11.824-32.342c1.333.831 2.764 2.862 3.015 4.333m-7.874-4.333c-1.333.831-2.765 2.862-3.015 4.333"/><path stroke="#fff" stroke-width="3" d="M51.456 67.431h2.825"/><path fill="#fff" fill-rule="evenodd" d="M58.448 84a.4.4 0 0 1-.4-.4V71.238c0-.22.18-.4.4-.4H74.6a.4.4 0 0 1 .4.4V83.6a.4.4 0 0 1-.4.4z" clip-rule="evenodd"/><path stroke="#333" stroke-width="1.5" d="M58.448 84a.4.4 0 0 1-.4-.4V71.238c0-.22.18-.4.4-.4H74.6c.22 0 .4.18.4.4V83.6a.4.4 0 0 1-.4.4z" clip-rule="evenodd"/><path stroke="#333" stroke-width="1.5" d="M69.209 70.816v5.767l-2.705-1.059-2.678 1.059v-5.767"/><path fill="#ffe600" stroke="#fff" stroke-width="3" d="M65.025 59.154v10.16H51.073v-10.16z"/><path fill="#ffe600" stroke="#fff" stroke-width="3" d="M65.025 59.154v10.16H51.073v-10.16z"/><path stroke="#fff" stroke-width="3" d="M60.738 57.63v5.767l-2.704-1.059-2.678 1.059v-5.768"/><path stroke="#333" stroke-width="1.5" d="M52.431 57.654h-2.458a.4.4 0 0 0-.4.4v12.361c0 .22.179.4.4.4h16.152a.4.4 0 0 0 .4-.4V58.054a.4.4 0 0 0-.4-.4z"/><path fill="#fff" stroke="#333" stroke-width="1.5" d="M60.738 63.415v-5.767h-5.382v5.767l2.678-1.058z"/><path fill="#ffe600" stroke="#fff" stroke-width="3" d="M73.501 72.339V82.5H59.55V72.34z"/><path fill="#ffe600" stroke="#fff" stroke-width="3" d="M73.501 72.339V82.5H59.55V72.34z"/><path stroke="#fff" stroke-width="3" d="M69.215 70.815v5.767l-2.705-1.059-2.678 1.059v-5.768"/><path stroke="#333" stroke-width="1.5" d="M60.907 70.839H58.45a.4.4 0 0 0-.4.4V83.6c0 .221.18.4.4.4h16.152a.4.4 0 0 0 .4-.4V71.24a.4.4 0 0 0-.4-.4H60.908Z"/><path fill="#fff" stroke="#333" stroke-width="1.5" d="M69.215 76.6v-5.767h-5.383v5.768l2.678-1.059z"/><path fill="#ffe600" stroke="#fff" stroke-width="3" d="M56.549 72.339V82.5H42.597V72.34z"/><path fill="#ffe600" stroke="#fff" stroke-width="3" d="M56.549 72.339V82.5H42.597V72.34z"/><path stroke="#fff" stroke-width="3" d="M52.262 70.815v5.767l-2.704-1.059-2.679 1.059v-5.768"/><path stroke="#333" stroke-width="1.5" d="M43.955 70.839h-2.458a.4.4 0 0 0-.4.4V83.6a.4.4 0 0 0 .4.4h16.151a.4.4 0 0 0 .4-.4V71.24a.4.4 0 0 0-.4-.4z"/><path fill="#fff" stroke="#333" stroke-width="1.5" d="M52.262 76.6v-5.767h-5.383v5.768l2.679-1.059z"/><path stroke="#333" stroke-width="1.5" d="M90.602 63.421 78.81 56.613"/><circle cx="18.158" cy="18.158" r="16.658" fill="#ffe600" stroke="#fff" stroke-width="3" transform="rotate(75 -2.075 44.876)scale(1 -1)"/><circle cx="18.158" cy="18.158" r="18.158" stroke="#333" stroke-width="1.5" transform="rotate(75 -2.075 44.876)scale(1 -1)"/><rect width="21.292" height="9.185" fill="#fff" stroke="#333" stroke-width="1.5" rx="1.164" transform="rotate(210 49.986 21.02)scale(-1 1)"/><mask id="a" width="32" height="32" x="48" y="32" maskUnits="userSpaceOnUse" style="mask-type:alpha"><circle cx="15.107" cy="15.107" r="15.107" fill="#d9d9d9" transform="rotate(255 37.1 1.208)scale(-1 1)"/></mask><g mask="url(#a)"><path fill="#fff" d="M45.613 45.596c2.981-3.509 5.3-7.685 4.472-9.189s-2.319-1.67-5.797-1.17c0-2.505.198-4.41-3.645-4.009-4.803.501-7.95 1.056-6.129 5.4q.062.294.147.65c.022 2.502-6.95 2.256-.64 8.318z"/><path stroke="#333" stroke-linecap="round" stroke-width="1.5" d="M44.288 35.238c3.478-.502 4.969-.335 5.797 1.169s-1.49 5.68-4.472 9.189H34.022c-6.81-6.541 1.848-5.738.492-8.968m9.774-1.39c0-2.506.198-4.41-3.645-4.01-4.803.501-7.95 1.056-6.129 5.4m9.774-1.39c-.11 1.263-.526 4.023-1.322 4.958m-8.452-3.568c.388 1.857 1.528 5.84 2.986 6.91"/><path fill="#fff" d="M16.462 65.921c-2.53 8.752.382 20.767 3.54 25.335 4.319 6.249 12.485 7.106 20.01 7.106s15.426-.857 19.745-7.106c3.158-4.568 6.347-17.187 3.843-25.335S53.04 44.645 40.012 44.645c-13.027 0-21.018 12.524-23.55 21.276"/><path stroke="#333" stroke-width="1.5" d="M16.462 65.921c-2.53 8.752.382 20.767 3.54 25.335 4.319 6.249 12.485 7.106 20.01 7.106s15.426-.857 19.745-7.106c3.158-4.568 6.347-17.187 3.843-25.335S53.04 44.645 40.012 44.645c-13.027 0-21.018 12.524-23.55 21.276Z"/><path stroke="#333" stroke-linecap="round" stroke-width="1.5" d="M43.676 44.994c1.814 1.132 3.763 3.895 4.104 5.897"/><path fill="#ffe600" fill-rule="evenodd" d="M45.2 73.395a.4.4 0 0 1-.4-.4V51.242a.4.4 0 0 1 .4-.4h28.248a.4.4 0 0 1 .4.4v21.753a.4.4 0 0 1-.4.4z" clip-rule="evenodd"/><path fill="#fff" d="M73.448 50.842a.4.4 0 0 1 .4.4v21.753a.4.4 0 0 1-.4.4H45.2a.4.4 0 0 1-.4-.4V51.242c0-.22.18-.4.4-.4zM46.3 71.894h26.048V52.342H46.3z"/><path fill="#ffe600" d="M49.697 50.842H45.2a.4.4 0 0 0-.4.4v21.753c0 .22.179.4.4.4h28.248a.4.4 0 0 0 .4-.4V51.242a.4.4 0 0 0-.4-.4h-23.75"/><path fill="#fff" d="M47.8 70.395h23.048V53.842H47.8zm26.048 2.6-.008.08a.4.4 0 0 1-.392.32H45.2l-.08-.008a.4.4 0 0 1-.312-.312l-.008-.08V51.242a.4.4 0 0 1 .32-.392l.08-.008h28.248a.4.4 0 0 1 .4.4z"/><path fill="#fff" d="M64.683 50.8v10.982L59.3 59.674l-5.341 2.111V50.8h1.5v8.78l3.839-1.517 3.885 1.52V50.8z"/><path fill="#333" d="M45.55 72.645h27.548V51.592H45.55zm29.048.35a1.15 1.15 0 0 1-1.15 1.15H45.2a1.15 1.15 0 0 1-1.15-1.15V51.242c0-.635.515-1.15 1.15-1.15h28.248c.635 0 1.15.515 1.15 1.15z"/><path fill="#fff" d="M63.933 60.715v-9.883h-9.224v9.883l4.59-1.814z"/><path fill="#333" d="M64.683 50.082v11.732L59.3 59.706l-5.341 2.112V50.082zm-9.224 9.53 3.839-1.517 3.885 1.52v-8.033h-7.724z"/></g></svg>