<svg xmlns="http://www.w3.org/2000/svg" width="96" height="96" viewBox="0 0 96 96"><g fill="none" fill-rule="evenodd"><rect width="71" height="28" x="12.5" y="58.836" stroke="#000" stroke-opacity=".45" stroke-width="2.5" rx="14"/><circle cx="26" cy="72.836" r="9" fill="#d8d8d8"/><circle cx="70" cy="72.836" r="9" fill="#d8d8d8"/><circle cx="48" cy="72.836" r="9" fill="#d8d8d8"/><g transform="translate(25.5 17.986)"><g fill-rule="nonzero"><path fill="#ffea78" stroke="#333" d="M1.218.762h42.64a1 1 0 0 1 1 1v2.382a1 1 0 0 1-1 1H1.217a1 1 0 0 1-1-1V1.762a1 1 0 0 1 1-1z"/><path stroke="#333" d="M2.623 5.12a.5.5 0 0 0-.5.5v31.962a1.5 1.5 0 0 0 1.5 1.5h38.128a1.5 1.5 0 0 0 1.5-1.5V5.62a.5.5 0 0 0-.5-.5z"/><path fill="#fff" d="M.67 18.801h3.354V29.9H.67zm0-2.018h3.354v-1.917H.67z"/><path stroke="#333" stroke-linecap="round" stroke-linejoin="round" d="M5.489 8.686h29.226"/><path fill="#ffdb15" stroke="#333" d="M18.933.671v16.17l3.734-1.588 3.734 1.588V.671z"/></g><rect width="10.23" height="5.952" x="5.011" y="30.459" fill="#ffea78" stroke="#333" rx="2.5"/></g></g></svg>